<svg width="51" height="51" viewBox="0 0 51 51" fill="none" xmlns="http://www.w3.org/2000/svg">
<path d="M25.9146 0.720703C12.1646 0.720703 0.914551 11.9457 0.914551 25.7708C0.914551 38.2708 10.0645 48.6458 22.0145 50.5208V33.0208H15.6646V25.7708H22.0145V20.2457C22.0145 13.9707 25.7396 10.5207 31.4646 10.5207C34.1896 10.5207 37.0396 10.9957 37.0396 10.9957V17.1707H33.8895C30.7895 17.1707 29.8146 19.0957 29.8146 21.0708V25.7708H36.7646L35.6396 33.0208H29.8146V50.5208C35.7056 49.5903 41.07 46.5845 44.9393 42.0458C48.8085 37.5073 50.9281 31.7348 50.9146 25.7708C50.9146 11.9457 39.6646 0.720703 25.9146 0.720703Z" fill="white"/>
</svg>
