<svg width="207" height="83" viewBox="0 0 207 83" fill="none" xmlns="http://www.w3.org/2000/svg">
<path d="M9.6328 64.0424V77.7218H14.1841C16.3934 77.7218 18.102 77.1207 19.3098 75.9184C20.5176 74.7161 21.1215 73.0154 21.1215 70.8161C21.1215 68.5875 20.5176 66.9014 19.3098 65.7578C18.102 64.6142 16.3934 64.0424 14.1841 64.0424H9.6328ZM0 59.5119H14.1841C15.8927 59.5119 17.4539 59.7612 18.8679 60.2597C20.3114 60.7288 21.5339 61.4473 22.5355 62.4149C23.5665 63.3533 24.3619 64.5262 24.9216 65.9338C25.4813 67.312 25.7611 68.9101 25.7611 70.7281C25.7611 72.4875 25.4813 74.0857 24.9216 75.5225C24.3913 76.9594 23.6107 78.1763 22.5796 79.1733C21.5781 80.1703 20.3556 80.9474 18.9121 81.5045C17.4981 82.0323 15.9221 82.2962 14.1841 82.2962H4.86059V64.0424H2.03261L0 59.5119Z" fill="#FFFFFF"/>
<path d="M31.3732 51.5946C31.3732 50.8615 31.6236 50.2457 32.1244 49.7472C32.6252 49.2194 33.2438 48.9555 33.9803 48.9555C34.9524 48.9555 35.6594 49.278 36.1013 49.9232C36.5726 50.539 36.8083 51.2574 36.8083 52.0784C36.8083 52.6942 36.6904 53.3687 36.4548 54.1017C36.2191 54.8348 35.8803 55.5533 35.4385 56.257C34.9966 56.9608 34.4663 57.6206 33.8477 58.2364C33.2291 58.8228 32.5368 59.3067 31.7709 59.6879L30.7546 58.3683C31.7857 57.5766 32.5074 56.8728 32.9198 56.257C33.3617 55.6119 33.5826 54.9228 33.5826 54.1897C32.9345 54.1017 32.4043 53.8232 31.9919 53.354C31.5794 52.8555 31.3732 52.269 31.3732 51.5946Z" fill="#FFFFFF"/>
<path d="M52.7712 48.9115H58.0737L73.9369 82.2962H68.5461L66.3809 77.5019H56.3504C54.848 77.5019 53.5077 77.6045 52.3294 77.8098C51.1805 78.015 50.1936 78.2789 49.3688 78.6015C48.544 78.924 47.8812 79.2759 47.3804 79.6571C46.8796 80.0383 46.5408 80.4049 46.3641 80.7568L45.5245 82.2962H40.3104L54.5829 52.9581L52.7712 48.9115ZM64.2157 72.6635L57.0132 58.8082L49.7223 74.5109C50.3115 74.0124 51.2836 73.5872 52.6387 73.2353C53.9937 72.8541 55.8201 72.6635 58.1179 72.6635H64.2157Z" fill="#FFFFFF"/>
<path d="M98.6617 75.3906C98.9268 75.8597 99.2214 76.2263 99.5454 76.4902C99.8695 76.7541 100.208 76.9594 100.562 77.106C100.915 77.2233 101.254 77.3113 101.578 77.3699C101.932 77.3992 102.241 77.4139 102.506 77.4139H104.097V82.2962H102.108C101.519 82.2962 100.93 82.2669 100.341 82.2083C99.7811 82.1496 99.2214 82.003 98.6617 81.7684C98.102 81.5338 97.557 81.1819 97.0268 80.7128C96.4965 80.2143 95.9663 79.5398 95.436 78.6895L91.901 72.9714H91.5917C90.708 72.9714 89.9568 73.0007 89.3382 73.0594C88.749 73.0887 88.2188 73.162 87.7475 73.2793C87.3056 73.3966 86.8784 73.5432 86.466 73.7191C86.0831 73.8657 85.6559 74.0564 85.1846 74.2909V82.2962H80.5449V59.5119H95.3035C96.3639 59.5119 97.3213 59.6879 98.1756 60.0397C99.0594 60.3623 99.8253 60.8315 100.473 61.4473C101.121 62.0631 101.622 62.7961 101.976 63.6465C102.329 64.4676 102.506 65.3766 102.506 66.3736C102.506 68.133 102.049 69.5552 101.136 70.6402C100.223 71.7251 98.9268 72.5169 97.2477 73.0154L98.6617 75.3906ZM95.3035 68.4409C95.981 68.4409 96.5702 68.265 97.071 67.9131C97.6012 67.5319 97.8663 66.9747 97.8663 66.2417C97.8663 65.7432 97.7632 65.3473 97.557 65.0541C97.3508 64.7608 97.0857 64.5409 96.7616 64.3943C96.467 64.2477 96.1136 64.1597 95.7011 64.1304C95.2887 64.0717 94.891 64.0424 94.5081 64.0424H85.1846V69.7605C86.0683 69.262 87.0405 68.9247 88.1009 68.7488C89.1909 68.5435 90.3545 68.4409 91.5917 68.4409H95.3035Z" fill="#FFFFFF"/>
<path d="M132.811 79.7451C131.545 80.8301 130.101 81.6511 128.481 82.2083C126.861 82.7361 125.167 83 123.4 83C121.662 83 119.982 82.7361 118.362 82.2083C116.742 81.6511 115.299 80.8594 114.032 79.8331C112.795 78.7774 111.793 77.5019 111.027 76.0064C110.291 74.4815 109.923 72.7515 109.923 70.8161C109.923 68.8808 110.305 67.1653 111.071 65.6698C111.837 64.1744 112.854 62.9134 114.12 61.8871C115.387 60.8608 116.83 60.0837 118.451 59.5559C120.071 59.0281 121.735 58.7642 123.444 58.7642C125.123 58.7642 126.758 59.0134 128.349 59.5119C129.939 59.9811 131.368 60.6849 132.635 61.6232L129.586 65.142C128.732 64.5556 127.759 64.1157 126.669 63.8225C125.609 63.4999 124.534 63.3386 123.444 63.3386C122.324 63.3386 121.249 63.4999 120.218 63.8225C119.187 64.1157 118.259 64.5702 117.434 65.186C116.61 65.8018 115.947 66.5935 115.446 67.5612C114.975 68.4996 114.739 69.6138 114.739 70.9041C114.739 72.1943 114.989 73.3086 115.49 74.247C115.991 75.1853 116.654 75.9624 117.479 76.5782C118.303 77.194 119.231 77.6631 120.262 77.9857C121.323 78.2789 122.398 78.4255 123.488 78.4255C124.725 78.4255 125.918 78.2203 127.067 77.8098C128.245 77.3699 129.276 76.7541 130.16 75.9624L132.811 79.7451Z" fill="#FFFFFF"/>
<path d="M140.784 82.2962V59.5119H145.292V82.2962H140.784Z" fill="#FFFFFF"/>
<path d="M158.716 59.5119L172.546 75.3466V59.5119H177.097V82.2962H172.546L159.82 67.4732V82.2962H155.269V62.8988L153.015 59.5119H158.716Z" fill="#FFFFFF"/>
<path d="M202.184 65.142C201.3 64.4089 200.269 63.8958 199.091 63.6025C197.942 63.3093 196.704 63.1627 195.379 63.1627C194.819 63.1627 194.259 63.236 193.7 63.3826C193.169 63.4999 192.683 63.6759 192.242 63.9104C191.8 64.1157 191.431 64.3796 191.137 64.7022C190.872 64.9954 190.739 65.3033 190.739 65.6259C190.739 65.9777 190.783 66.3003 190.872 66.5935C190.99 66.8574 191.21 67.092 191.534 67.2973C191.888 67.4732 192.389 67.6198 193.037 67.7371C193.714 67.8544 194.613 67.9131 195.732 67.9131C198.148 67.9131 200.092 68.1037 201.565 68.4849C203.067 68.8661 204.216 69.3793 205.012 70.0244C205.807 70.6695 206.337 71.4172 206.602 72.2676C206.867 73.118 207 73.9977 207 74.9067C207 76.2849 206.705 77.4872 206.116 78.5135C205.527 79.5105 204.702 80.3462 203.642 81.0207C202.611 81.6658 201.388 82.1496 199.974 82.4722C198.56 82.8241 197.043 83 195.423 83C193.39 83 191.461 82.5748 189.634 81.7244C187.838 80.8447 186.306 79.6571 185.039 78.1616L188.309 74.8627C188.662 75.2146 189.031 75.6105 189.414 76.0503C189.826 76.4902 190.297 76.9007 190.828 77.2819C191.387 77.6631 192.035 77.9857 192.772 78.2496C193.508 78.4842 194.392 78.6015 195.423 78.6015C197.544 78.6015 199.253 78.2936 200.549 77.6778C201.845 77.062 202.493 76.1383 202.493 74.9067C202.493 73.8804 201.904 73.206 200.725 72.8834C199.577 72.5609 197.809 72.3996 195.423 72.3996C194.038 72.3996 192.772 72.2823 191.623 72.0477C190.474 71.8131 189.472 71.4319 188.618 70.9041C187.793 70.3469 187.145 69.6432 186.674 68.7928C186.203 67.9131 185.967 66.8574 185.967 65.6259C185.967 64.5995 186.217 63.6612 186.718 62.8108C187.248 61.9604 187.941 61.242 188.795 60.6555C189.649 60.0398 190.651 59.5706 191.8 59.248C192.948 58.9255 194.156 58.7642 195.423 58.7642C197.102 58.7642 198.737 58.9548 200.328 59.336C201.918 59.7172 203.553 60.4796 205.233 61.6232L202.184 65.142Z" fill="#FFFFFF"/>
<path d="M44.1651 23.664L32.9857 10.2485V32.8129H28.2577V4.61844L24.4134 0H30.6438L44.1209 16.0986L57.7747 0H64.0051L60.1608 4.61844V32.8129H55.4328V10.2485L44.1651 23.664Z" fill="#FFFFFF"/>
<path d="M99.8337 32.8129V30.8476V27.2205V10.0286H104.341V27.2416V30.863V32.8129H99.8337Z" fill="#FFFFFF"/>
<path d="M147.344 32.8129V30.2102V25.0023V10.0286H151.851V23.6751V28.5605V32.8129H147.344Z" fill="#FFFFFF"/>
<path d="M166.954 28.2385H181.314V32.8129H162.447V27.615V22.5097V10.0286H180.475V14.5591H166.954V20.1012C167.955 19.5148 169.06 19.1482 170.268 19.0016C171.505 18.855 172.786 18.7817 174.112 18.7817H177.47V23.3121H174.112C173.051 23.3121 172.168 23.3415 171.461 23.4001C170.783 23.4294 170.194 23.4881 169.693 23.576C169.192 23.664 168.736 23.796 168.323 23.9719C167.911 24.1479 167.454 24.3678 166.954 24.6317V28.2385Z" fill="#FFFFFF"/>
<path fill-rule="evenodd" clip-rule="evenodd" d="M85.0969 25.2475H84.4783C82.0922 25.2475 80.1332 25.4821 78.6014 25.9512C77.0696 26.4204 75.9354 26.8456 75.199 27.2268L80.634 16.8023L84.4237 23.979C85.5324 24.0729 87.6982 24.3042 89.7282 24.6379L81.6945 9.5008H76.7897L78.2921 12.3598L67.3337 32.8129H72.1059L72.2384 32.549C72.4152 32.3144 72.8865 32.0212 73.6524 31.6693C74.4478 31.2881 75.4052 30.9362 76.5246 30.6137C77.6735 30.2618 78.9402 29.9686 80.3247 29.734C81.7092 29.4994 83.1085 29.3821 84.5225 29.3821H87.2621L89.0738 32.8129H94.0669L92.6705 30.1818L90.4014 25.9064C88.3714 25.5727 86.2056 25.3414 85.0969 25.2475Z" fill="#FFFFFF"/>
<path fill-rule="evenodd" clip-rule="evenodd" d="M99.8337 30.8476L98.666 30.7814V27.1543C96.2833 27.0084 94.2902 26.7504 92.9234 26.4091C92.1794 26.2233 91.3038 26.0547 90.4014 25.9064L92.6705 30.1818C94.3089 30.4124 97.0638 30.7157 99.8337 30.8476Z" fill="#FFFFFF"/>
<path fill-rule="evenodd" clip-rule="evenodd" d="M104.341 30.863C104.63 30.8465 104.91 30.8256 105.18 30.8L104.341 30.863ZM106.522 30.6137C106.207 30.6748 105.866 30.7253 105.503 30.7664V27.1543C105.881 27.1148 106.224 27.0659 106.522 27.0069C107.985 26.7175 109.724 25.639 111.791 24.3573C112.446 23.951 113.135 23.5243 113.857 23.0958V27.3415C111.462 28.6939 108.81 30.1695 106.522 30.6137Z" fill="#FFFFFF"/>
<path fill-rule="evenodd" clip-rule="evenodd" d="M133.937 27.0069C133.613 26.743 133.319 26.3764 133.053 25.9073L131.639 23.5321C133.319 23.0336 134.615 22.2418 135.528 21.1569C136.441 20.0719 136.898 18.6497 136.898 16.8903C136.898 15.8933 136.721 14.9843 136.367 14.1632C136.014 13.3128 135.513 12.5798 134.865 11.964C134.217 11.3482 133.451 10.879 132.567 10.5564C131.713 10.2046 130.756 10.0286 129.695 10.0286H114.937V22.4715V26.7334V32.8129H119.576V24.8076V20.2772V14.5591H128.9C129.283 14.5591 129.681 14.5884 130.093 14.6471C130.505 14.6764 130.859 14.7644 131.153 14.911C131.477 15.0576 131.743 15.2775 131.949 15.5707C132.155 15.864 132.258 16.2598 132.258 16.7583C132.258 17.4914 131.993 18.0486 131.463 18.4298C130.962 18.7817 130.373 18.9576 129.695 18.9576H125.984C124.746 18.9576 123.583 19.0602 122.493 19.2655C121.922 19.3602 121.377 19.5015 120.858 19.6895V24.2358C121.27 24.0599 121.697 23.9133 122.139 23.796C122.611 23.6787 123.141 23.6054 123.73 23.576C124.349 23.5174 125.1 23.4881 125.984 23.4881H126.293L129.828 29.2061C130.358 30.0565 130.888 30.731 131.419 31.2295C131.949 31.6986 132.494 32.0505 133.053 32.2851C133.613 32.5197 134.173 32.6663 134.733 32.725C135.322 32.7836 135.911 32.8129 136.5 32.8129H138.488V27.9306H136.898C136.633 27.9306 136.323 27.9159 135.97 27.8866C135.646 27.8279 135.307 27.74 134.954 27.6227C134.6 27.4761 134.261 27.2708 133.937 27.0069Z" fill="#FFFFFF"/>
</svg>
