<svg width="166" height="40" viewBox="0 0 166 40" fill="none" xmlns="http://www.w3.org/2000/svg">
<path d="M116 21.6636C115.172 21.6636 114.5 20.992 114.5 20.1636C114.5 19.3351 115.172 18.6636 116 18.6636L116 21.6636ZM142.619 18.6636L144.119 18.6636L144.119 21.6636L142.619 21.6636L142.619 18.6636ZM116 18.6636L142.619 18.6636L142.619 21.6636L116 21.6636L116 18.6636Z" fill="#A0B2A6"/>
<path d="M142.41 21.5237L141.285 20.5318L143.268 18.2813L144.394 19.2732L142.41 21.5237ZM164.363 36.8747C164.984 37.4225 165.044 38.3704 164.496 38.9919C163.948 39.6133 163 39.673 162.379 39.1253L164.363 36.8747ZM144.394 19.2732L164.363 36.8747L162.379 39.1253L142.41 21.5237L144.394 19.2732Z" fill="#A0B2A6"/>
<rect x="0.0978641" y="-0.0978641" width="0.195728" height="0.195728" transform="matrix(1 0 0 -1 143.011 19.7722)" fill="#A0B2A6" stroke="#A0B2A6" stroke-width="0.195728"/>
<path d="M142.802 18.4763L141.676 19.4682L143.66 21.7187L144.785 20.7268L142.802 18.4763ZM164.754 3.12527C165.376 2.57748 165.435 1.62961 164.888 1.00815C164.34 0.38668 163.392 0.326954 162.771 0.874742L164.754 3.12527ZM144.785 20.7268L164.754 3.12527L162.771 0.874742L142.802 18.4763L144.785 20.7268Z" fill="#A0B2A6"/>
<path d="M49.7622 18.3364C50.5906 18.3364 51.2622 19.008 51.2622 19.8364C51.2622 20.6649 50.5906 21.3364 49.7622 21.3364L49.7622 18.3364ZM23.1432 21.3364L21.6432 21.3364L21.6432 18.3364L23.1432 18.3364L23.1432 21.3364ZM49.7622 21.3364L23.1432 21.3364L23.1432 18.3364L49.7622 18.3364L49.7622 21.3364Z" fill="#A0B2A6"/>
<path d="M23.3522 18.4763L24.4775 19.4682L22.4938 21.7187L21.3685 20.7268L23.3522 18.4763ZM1.39955 3.12527C0.778086 2.57748 0.718358 1.62961 1.26615 1.00815C1.81394 0.38668 2.7618 0.326954 3.38327 0.874742L1.39955 3.12527ZM21.3685 20.7268L1.39955 3.12527L3.38327 0.874742L23.3522 18.4763L21.3685 20.7268Z" fill="#A0B2A6"/>
<rect x="-0.0978641" y="0.0978641" width="0.195728" height="0.195728" transform="matrix(-1 0 0 1 22.5557 20.0321)" fill="#A0B2A6" stroke="#A0B2A6" stroke-width="0.195728"/>
<path d="M22.9606 21.5237L24.0859 20.5318L22.1022 18.2813L20.9769 19.2732L22.9606 21.5237ZM1.00795 36.8747C0.386484 37.4225 0.326757 38.3704 0.874545 38.9919C1.42233 39.6133 2.3702 39.673 2.99167 39.1253L1.00795 36.8747ZM20.9769 19.2732L1.00795 36.8747L2.99167 39.1253L22.9606 21.5237L20.9769 19.2732Z" fill="#A0B2A6"/>
<path d="M73 10H75M73 16H75M83 16H85M83 22H85M73 22H75M83 10H85M75 38V32C75 29.7908 76.7909 28 79 28C81.2092 28 83 29.7908 83 32V38H75ZM75 38H67V5.2C67 4.0799 67 3.51984 67.218 3.09202C67.4097 2.7157 67.7157 2.40974 68.092 2.21798C68.5198 2 69.0799 2 70.2 2H87.8C88.9202 2 89.4802 2 89.908 2.21798C90.2844 2.40974 90.5902 2.7157 90.782 3.09202C91 3.51984 91 4.0799 91 5.2V14M100.4 23C100.4 24.6568 99.0568 26 97.4 26C95.7432 26 94.4 24.6568 94.4 23C94.4 21.3432 95.7432 20 97.4 20C99.0568 20 100.4 21.3432 100.4 23ZM104 38V37C104 34.2386 101.761 32 99 32H96C93.2386 32 91 34.2386 91 37V38H104Z" stroke="#2F4F4F" stroke-width="3" stroke-linecap="round" stroke-linejoin="round"/>
</svg>
